<svg xmlns="http://www.w3.org/2000/svg" xmlns:xlink="http://www.w3.org/1999/xlink" viewBox="187.68 289.83 782.38 456.43"><linearGradient id="a" gradientUnits="userSpaceOnUse" x1="257.54" x2="719.87" y1="682.68" y2="329.85"><stop offset="0" stop-color="#81c784"/><stop offset=".63" stop-color="#5cb660"/><stop offset="1" stop-color="#4caf50"/></linearGradient><path d="m591 290.87c-85.13 2.2-139.75 7-197.49 32.26-5.35 2.33-12.63 5.53-22.09 10.6-61.8 33.11-95.89 81.27-111.1 103.27-5.74 8.3-9.34 14.29-10.48 16.23-8.38 14.31-17.39 33.45-26.85 63.41-13.53 42.78-30.11 109.41-35.31 198.71 7.23-6.1 54.44-52.59 68-60a257.09 257.09 0 0 0 -53.94 80.71c24 2.81 55.66 5.86 92.82 7.66 71 3.42 121.94 5.53 186.12-8.24 72.6-15.57 108.41-40 118.29-47a277.59 277.59 0 0 0 49-45.07c2.87-3.38 6.3-7.43 10.05-12.23l-214.6 1.57q27.38-127.36 54.7-254.75l39.88-17.15q-26.21 120.69-52.41 241.38 96.33-1 192.67-2 2.84-5.27 5.52-11.09c.36-.77.87-2 1.52-3.71l-175.83.22q16.07-75.22 32.12-150.48 5-23.46 5.14-23.44l19.79-.18 167-1.44c.34-1.84.7-3.72 1.05-5.65 4.75-25.61 10.43-57.59 16.47-94.88q1.47-9.14 3-18.67c-61.04-1.61-115.79-1.25-163.04-.04zm-124.1 143.57a149.93 149.93 0 0 0 -57.53 12.69 155.07 155.07 0 0 0 -34.05 21c-4.51 3.56-18 14.32-28.92 29-18.64 25-37.29 71.35-20.62 89 4.19 4.42 9.54 5.76 52.43 5.89 22.43.06 41.35-.25 55.38-.59q-4.43 20.91-8.84 41.82c-19.71-.08-35.71.27-46.54.59 0 0-21.44.64-54.18-.55-13.9-.5-24.6-1.19-33.59-8.87-5.34-4.57-7.89-9.73-10-14.14-6.25-13-7.5-26.55-6.48-41.24.57-8.08 2.74-29.51 15.71-58.44 7.09-15.81 21.2-45.47 52.32-72a190.1 190.1 0 0 1 36.76-23.78c36-18 71.56-22.24 98.52-22z" fill="url(#a)"/><text fill="#4caf50" font-family="ProximaNova-BoldIt, Proxima Nova" font-size="152.28" font-style="italic" font-weight="700" transform="matrix(.99999848 -.00174533 .00174533 .99999848 564.11 550.09)">IN<tspan letter-spacing="-.02em" x="152.74" y="0">S</tspan><tspan x="241.67" y="0">TI</tspan></text></svg>